<?xml version="1.0" encoding="utf-8"?>
<!-- Generator: Adobe Illustrator 21.0.1, SVG Export Plug-In . SVG Version: 6.00 Build 0)  -->
<svg version="1.1" id="Capa_1" xmlns="http://www.w3.org/2000/svg" xmlns:xlink="http://www.w3.org/1999/xlink" x="0px" y="0px"
	 viewBox="0 0 512 512" style="enable-background:new 0 0 512 512;" xml:space="preserve">
<style type="text/css">
	.st0{fill:#243D7E;}
</style>
<g>
	<g>
		<path class="st0" d="M458.7,85.3H53.3C23.9,85.3,0,109.3,0,138.7v234.7c0,29.4,23.9,53.3,53.3,53.3h405.3
			c29.4,0,53.3-23.9,53.3-53.3V138.7C512,109.3,488.1,85.3,458.7,85.3z M490.7,373.3c0,17.6-14.4,32-32,32H53.3
			c-17.6,0-32-14.4-32-32V138.7c0-17.6,14.4-32,32-32h405.3c17.6,0,32,14.4,32,32L490.7,373.3L490.7,373.3z"/>
	</g>
</g>
<g>
	<g>
		<path class="st0" d="M160,298.7H74.7c-5.9,0-10.7,4.8-10.7,10.7S68.8,320,74.7,320H160c5.9,0,10.7-4.8,10.7-10.7
			S165.9,298.7,160,298.7z"/>
	</g>
</g>
<g>
	<g>
		<path class="st0" d="M224,341.3H74.7c-5.9,0-10.7,4.8-10.7,10.7s4.8,10.7,10.7,10.7H224c5.9,0,10.7-4.8,10.7-10.7
			C234.7,346.1,229.9,341.3,224,341.3z"/>
	</g>
</g>
<g>
	<g>
		<path class="st0" d="M236.2,132.9c-12.5-3.7-26.4,1.1-34.3,11.7c-6,8.1-7.9,18.1-5,27.6c14.7,49.4,60.9,83.8,112.5,83.8
			c5.9,0,10.7-4.8,10.7-10.7C320,193.8,285.5,147.5,236.2,132.9z M217.3,166.1c-1.2-4,0.5-7.2,1.7-8.7c2.1-2.8,5.2-4.4,8.4-4.4
			c0.9,0,1.8,0.1,2.7,0.4c36.7,10.9,63.4,43.2,67.9,80.7C260.5,229.4,228.2,202.8,217.3,166.1z"/>
	</g>
</g>
<g>
	<g>
		<path class="st0" d="M416.8,144.6c-7.9-10.6-21.8-15.4-34.3-11.7c-49.4,14.7-83.8,60.9-83.8,112.5c0,5.9,4.8,10.7,10.7,10.7
			c51.5,0,97.8-34.5,112.5-83.8C424.6,162.7,422.8,152.6,416.8,144.6z M401.3,166.1c-10.9,36.7-43.2,63.4-80.7,67.9
			c4.5-37.5,31.2-69.8,67.9-80.7c0.9-0.3,1.8-0.4,2.7-0.4c3.2,0,6.3,1.7,8.3,4.4C400.8,158.9,402.6,162,401.3,166.1z"/>
	</g>
</g>
<g>
	<g>
		<path class="st0" d="M309.3,85.3c-5.9,0-10.7,4.8-10.7,10.7v320c0,5.9,4.8,10.7,10.7,10.7S320,421.9,320,416V96
			C320,90.1,315.2,85.3,309.3,85.3z"/>
	</g>
</g>
<g>
	<g>
		<path class="st0" d="M316.9,237.8c-4.2-4.2-10.9-4.2-15.1,0l-64,64c-4.2,4.2-4.2,10.9,0,15.1c2.1,2.1,4.8,3.1,7.6,3.1
			s5.5-1,7.5-3.1l64-64C321,248.7,321,242,316.9,237.8z"/>
	</g>
</g>
<g>
	<g>
		<path class="st0" d="M380.9,301.8l-64-64c-4.2-4.2-10.9-4.2-15.1,0s-4.2,10.9,0,15.1l64,64c2.1,2.1,4.8,3.1,7.6,3.1s5.5-1,7.5-3.1
			C385,312.7,385,306,380.9,301.8z"/>
	</g>
</g>
<g>
	<g>
		<path class="st0" d="M501.3,234.7H10.7c-5.9,0-10.7,4.8-10.7,10.7S4.8,256,10.7,256h490.7c5.9,0,10.7-4.8,10.7-10.7
			S507.2,234.7,501.3,234.7z"/>
	</g>
</g>
</svg>
