<?xml version="1.0" encoding="utf-8"?>
<!-- Generator: Adobe Illustrator 21.0.1, SVG Export Plug-In . SVG Version: 6.00 Build 0)  -->
<svg version="1.1" id="Layer_1" xmlns="http://www.w3.org/2000/svg" xmlns:xlink="http://www.w3.org/1999/xlink" x="0px" y="0px"
	 viewBox="0 0 512 512" style="enable-background:new 0 0 512 512;" xml:space="preserve">
<style type="text/css">
	.st0{fill:#243D7E;}
</style>
<g>
	<g>
		<path class="st0" d="M424.4,300c-12-12-13.5-48.4-11.7-71.4c0.3-1.4,0.4-2.9,0.4-4.5v-91.5C413.2,59.5,353.7,0,280.5,0h-49.1
			C158.3,0,98.8,59.5,98.8,132.6v91.5c0,1.5,0.2,3,0.4,4.5c1.9,23,0.3,59.3-11.7,71.3c-2.5,2.5-3.3,6.2-2,9.5
			c1.2,3.3,4.3,5.5,7.8,5.8c0.3,0,2.6,0.2,6.5,0.2c10,0,30.5-0.9,55.2-6.9c-37.9,19.3-62.8,58.6-62.8,102.6v92c0,4.9,4,8.9,8.9,8.9
			h309.5c4.9,0,8.9-4,8.9-8.9v-92c0-44-24.9-83.3-62.8-102.6c24.7,6,45.3,6.9,55.3,6.9c3.9,0,6.2-0.1,6.5-0.2
			c3.5-0.2,6.6-2.5,7.8-5.8C427.7,306.1,426.9,302.4,424.4,300z M116.7,132.6L116.7,132.6c0-63.3,51.5-114.8,114.8-114.8h49.1
			c63.3,0,114.8,51.5,114.8,114.8v15.1c-1.7-0.4-3.5-0.6-5.4-0.6h-7.1c-1.8,0-3.6,0.2-5.4,0.6v-11.3c0-56.8-46.2-103-103-103h-37
			c-56.8,0-103,46.2-103,103v11.3c-1.7-0.4-3.5-0.6-5.4-0.6H122c-1.8,0-3.6,0.2-5.4,0.6L116.7,132.6L116.7,132.6z M389.9,229.5h-7.1
			c-3,0-5.4-2.4-5.4-5.4v-53.8c0-3,2.4-5.4,5.4-5.4h7.1c3,0,5.4,2.4,5.4,5.4V223c-0.1,0.6-0.2,1.5-0.3,2.7
			C394.4,227.9,392.4,229.5,389.9,229.5z M394.2,248c-2.9,9.4-11,16-20.6,17.1c1.8-6,3-12.2,3.6-18.6c1.8,0.5,3.7,0.7,5.7,0.7h7.1
			c1.4,0,2.9-0.1,4.2-0.4C394.2,247.3,394.2,247.7,394.2,248z M134.5,170.3v53.8c0,3-2.4,5.4-5.4,5.4h-7.1c-2.4,0-4.4-1.6-5.1-3.8
			c-0.1-1.1-0.2-2-0.3-2.7v-49.1v-3.5c0-3,2.4-5.4,5.4-5.4h7.1C132.1,165,134.5,167.4,134.5,170.3z M110,297.1
			c6.2-15.2,7.8-34.8,7.8-50.2c1.4,0.3,2.8,0.4,4.2,0.4h7.1c2,0,3.9-0.3,5.7-0.7c1.4,16.3,7.1,31.5,16,44.5
			C134.6,295,120.2,296.6,110,297.1z M152.4,224.1v-53.8v-33.9c0-47,38.2-85.2,85.2-85.2h37c47,0,85.1,38.2,85.1,85.2v27.4
			l-39.5-55.3c-1.7-2.4-4.5-3.8-7.4-3.7c-2.9,0.1-5.7,1.6-7.3,4C269,164.2,217.7,207.7,157,234.4l-4.6,2L152.4,224.1L152.4,224.1z
			 M401.8,411v83.1H110.2V411c0-38.2,22.3-72.3,55.9-88.1v70.5c0,26.4,21.4,47.8,47.8,47.8h84.3c26.3,0,47.8-21.4,47.8-47.8V323
			C379.5,338.8,401.8,372.8,401.8,411z M256,396c-4.9,0-8.9,4-8.9,8.9v18.5h-33.2c-16.5,0-29.9-13.4-29.9-29.9v-73
			c4.4,2.3,9,4.3,13.8,5.9l41.1,13.8c5.5,1.9,11.3,2.8,17.1,2.8c5.8,0,11.6-0.9,17.1-2.8l41.1-13.8c4.8-1.6,9.4-3.6,13.8-5.9v73
			c0,16.5-13.4,29.9-29.9,29.9h-33.2v-18.5C264.9,400,260.9,396,256,396z M354.6,265.3h-64.2c-4.9,0-8.9,4-8.9,8.9s4,8.9,8.9,8.9
			h54.4c-8.9,12-21.4,21.3-36.2,26.3l-41.1,13.8c-7.4,2.5-15.5,2.5-22.9,0l-41.1-13.8c-25.1-8.5-43.4-29.3-49.2-54.3l9.9-4.4
			c59.9-26.4,111.1-68.3,148.8-121.5l46.6,65.3v43.8h0C359.6,247.8,357.9,256.9,354.6,265.3z M361.1,291.1c1.7-2.5,3.4-5.2,4.9-7.9
			h4.8c9.4,0,18.2-3.1,25.4-8.4c1.2,7.8,3.1,15.5,5.9,22.4C391.8,296.6,377.4,295,361.1,291.1z"/>
	</g>
</g>
</svg>
