<?xml version="1.0" encoding="utf-8"?>
<!-- Generator: Adobe Illustrator 21.0.1, SVG Export Plug-In . SVG Version: 6.00 Build 0)  -->
<svg version="1.1" id="Capa_1" xmlns="http://www.w3.org/2000/svg" xmlns:xlink="http://www.w3.org/1999/xlink" x="0px" y="0px"
	 viewBox="0 0 512 512" style="enable-background:new 0 0 512 512;" xml:space="preserve">
<style type="text/css">
	.st0{fill:#243D7E;}
</style>
<g>
	<g>
		<path class="st0" d="M196,333.5h-78.8c-4.9,0-9.2,4.3-9.2,9.2v35.1c0,4.9,4.3,9.2,9.2,9.2H196c4.9,0,9.2-4.3,9.2-9.2v-35.1
			C205.2,337.2,200.9,333.5,196,333.5z M147.4,368.6h-20.9V352h20.9L147.4,368.6L147.4,368.6z M186.8,368h-20.9v-16.6h20.9V368z"/>
	</g>
</g>
<g>
	<g>
		<path class="st0" d="M389.2,333.5h-78.8c-4.9,0-9.2,4.3-9.2,9.2v35.1c0,4.9,4.3,9.2,9.2,9.2h78.8c4.9,0,9.2-4.3,9.2-9.2v-35.1
			C398.5,337.2,394.2,333.5,389.2,333.5z M340.6,368.6h-20.9V352h20.9V368.6z M380,368h-20.9v-16.6H380V368z"/>
	</g>
</g>
<g>
	<g>
		<path class="st0" d="M287.1,39.4h-68.3c-4.9,0-9.2,4.3-9.2,9.2s4.3,9.2,9.2,9.2h68.3c4.9,0,9.2-4.3,9.2-9.2
			C296.3,43.7,292,39.4,287.1,39.4z"/>
	</g>
</g>
<g>
	<g>
		<path class="st0" d="M450.2,84.3h-11.7V60.9c0-33.8-27.1-60.9-60.9-60.9H133.8C100,0,72.9,27.1,72.9,60.9v23.4H61.2
			c-16,0-29.5,13.5-29.5,30.2v68.3c0,16.6,13.5,30.2,30.2,30.2h11.7v169.8v19.1v84.9c0,13.5,11.1,25.2,25.2,25.2h73.8
			c13.5,0,25.2-11.1,25.2-25.2v-24h116.3v24c0,13.5,11.1,25.2,25.2,25.2h73.8c13.5,0,25.2-11.1,25.2-25.2v-84.3v-19.1V212.9h11.7
			c16.6,0,30.2-13.5,30.2-30.2v-68.3C480.3,97.8,466.8,84.3,450.2,84.3z M72.9,194.5H61.2c-6.2,0-11.7-4.9-11.7-11.7v-68.3
			c0-6.2,4.9-11.7,11.7-11.7h11.7V194.5z M171.4,493.5H97.5c-3.7,0-6.8-3.1-6.8-6.8v-41.2c11.1,10.5,25.8,17.2,42.5,17.2h44.3v24
			h0.6C178.2,490.5,175.1,493.5,171.4,493.5z M410.8,493.5h-73.8c-3.7,0-6.8-3.1-6.8-6.8v-24h44.3c16.6,0,31.4-6.8,42.5-17.2v41.2
			C417.5,490.5,414.5,493.5,410.8,493.5z M417.5,382.8v19.7c0,23.4-19.1,42.5-42.5,42.5H133.8c-23.4,0-42.5-19.1-42.5-42.5v-19.1
			v-67.1h323.7c1.2,0,1.8,0,2.5-0.6V382.8z M417.5,299.1c-0.6,0-1.8-0.6-2.5-0.6h-18.5l-136-88.6c-4.3-2.5-9.8-1.8-12.9,2.5
			c-2.5,4.3-1.8,9.8,2.5,12.9l112,72.6H255.7l-135.4-88c-4.3-2.5-9.8-1.8-12.9,2.5c-2.5,4.3-1.8,9.8,2.5,12.9l112,72.6H91.4V102.8
			h326.2V299.1z M417.5,84.3H91.4V60.9c0-23.4,19.1-42.5,42.5-42.5h241.2c23.4,0,42.5,19.1,42.5,42.5V84.3z M458.8,182.8
			c0,6.2-4.9,11.7-11.7,11.7h-11.7v-91.7h11.7c6.8,0,11.7,5.5,11.7,11.7V182.8z"/>
	</g>
</g>
</svg>
