<?xml version="1.0" encoding="utf-8"?>
<!-- Generator: Adobe Illustrator 21.0.1, SVG Export Plug-In . SVG Version: 6.00 Build 0)  -->
<svg version="1.1" id="Layer_1" xmlns="http://www.w3.org/2000/svg" xmlns:xlink="http://www.w3.org/1999/xlink" x="0px" y="0px"
	 viewBox="0 0 512 512" style="enable-background:new 0 0 512 512;" xml:space="preserve">
<style type="text/css">
	.st0{fill:#243D7E;}
</style>
<g transform="translate(1 1)">
	<g>
		<g>
			<path class="st0" d="M327.8,110.2h-61.3c-11.1,0-20.4,9.4-20.4,20.4V209c0,11.1,9.4,20.4,20.4,20.4h61.3
				c11.1,0,20.4-9.4,20.4-20.4v-78.4C348.3,119.5,338.9,110.2,327.8,110.2z M331.2,209c0,1.7-1.7,3.4-3.4,3.4h-61.3
				c-1.7,0-3.4-1.7-3.4-3.4v-78.4c0-1.7,1.7-3.4,3.4-3.4h61.3c1.7,0,3.4,1.7,3.4,3.4V209z"/>
			<path class="st0" d="M200.1,110.2h-61.3c-11.1,0-20.4,9.4-20.4,20.4V209c0,11.1,9.4,20.4,20.4,20.4h61.3
				c11.1,0,20.4-9.4,20.4-20.4v-78.4C220.5,119.5,211.1,110.2,200.1,110.2z M203.5,209c0,1.7-1.7,3.4-3.4,3.4h-61.3
				c-1.7,0-3.4-1.7-3.4-3.4v-78.4c0-1.7,1.7-3.4,3.4-3.4h61.3c1.7,0,3.4,1.7,3.4,3.4V209z"/>
			<path class="st0" d="M407.9,357.2c-9.4,0-17,7.7-17,17c0,9.4,7.7,17,17,17c9.4,0,17-7.7,17-17C425,364.9,417.3,357.2,407.9,357.2
				z"/>
			<path class="st0" d="M101.2,357.2c-9.4,0-17,7.7-17,17c0,9.4,7.7,17,17,17s17-7.7,17-17C118.3,364.9,110.6,357.2,101.2,357.2z"/>
			<path class="st0" d="M503.3,167.3l-74.1-81.8c-6-6-13.6-9.4-21.3-9.4H24.6C10.9,76.1-1,87.2-1,101.7v8.5v119.3v127.8
				c0,13.6,11.1,25.6,25.6,25.6h17.6c4.1,29.1,28.7,51.1,59,51.1s55-22,59-51.1h188.6c4.1,29.1,28.7,51.1,59,51.1s55-22,59-51.1
				h17.6c13.6,0,25.6-11.9,26.4-25.6V186.8C511,179.2,508.4,172.4,503.3,167.3z M464.7,151.1l24.1,27.3c2.6,1.7,3.4,5.1,3.4,7.7
				v26.4H390.9v-85.2h52L464.7,151.1z M16,127.2H74c0.9,0,1.7,0.9,1.7,1.7v81.8c0,0.9-0.9,1.7-1.7,1.7H16V127.2z M101.2,416.9
				c-23.9,0-42.6-18.7-42.6-42.6s18.7-42.6,42.6-42.6c23.9,0,42.6,18.7,42.6,42.6S125.1,416.9,101.2,416.9z M407.9,416.9
				c-23.9,0-42.6-18.7-42.6-42.6s18.7-42.6,42.6-42.6c23.9,0,42.6,18.7,42.6,42.6S431.8,416.9,407.9,416.9z M483.7,365.7H467
				c-4.1-29.1-28.7-51.1-59-51.1c-0.3,0-0.5,0-0.8,0c-0.3,0-0.6,0-0.9,0c-29.8,0-54.5,22.2-58.8,51.1H160.3
				c-4.1-29.1-28.7-51.1-59-51.1c-0.1,0-0.3,0-0.4,0c-0.1,0-0.3,0-0.4,0c-29.8,0-54.5,22.2-58.8,51.1h-17c-4.3,0-8.5-3.4-8.5-8.5
				v-59.6h298.2c5.1,0,8.5-3.4,8.5-8.5s-3.4-8.5-8.5-8.5H16v-17h264.1c5.1,0,8.5-3.4,8.5-8.5c0-5.1-3.4-8.5-8.5-8.5H16v-17H74
				c10.2,0,18.7-8.5,18.7-18.7v-81.8c0-10.2-8.5-18.7-18.7-18.7H16v-8.5c0-4.3,4.3-8.5,8.5-8.5h383.4c2.6,0,6,1.7,8.5,3.4l12.1,13.6
				h-40.2c-7.7,0-14.5,6.8-14.5,14.5V215c0,7.7,6.8,14.5,14.5,14.5h103.9V272h-41.7c-5.1,0-8.5,3.4-8.5,8.5s3.4,8.5,8.5,8.5h41.7
				v68.2C492.3,361.5,488.9,365.7,483.7,365.7z"/>
		</g>
	</g>
</g>
</svg>
