<?xml version="1.0" standalone="no"?><!DOCTYPE svg PUBLIC "-//W3C//DTD SVG 1.1//EN" "http://www.w3.org/Graphics/SVG/1.1/DTD/svg11.dtd"><svg class="icon" height="512" viewBox="0 0 1024 1024" version="1.1" xmlns="http://www.w3.org/2000/svg"><path d="M984.0128 312.6272c-26.6752-62.3616-63.1808-116.7104-109.5424-163.072s-100.7104-82.8672-163.072-109.5424S582.5536 0 512 0s-137.0368 13.3376-199.3728 39.9872-116.736 63.1808-163.0976 109.5424c-46.3616 46.3616-82.8672 100.7104-109.5424 163.072S0 441.4464 0 512s13.3376 137.0368 39.9872 199.3728 63.1808 116.7104 109.5424 163.072 100.7104 82.8672 163.072 109.5424S441.4464 1024 512 1024s137.0368-13.3376 199.3728-39.9872 116.7104-63.1808 163.072-109.5424 82.8672-100.7104 109.5424-163.072S1024 582.5536 1024 512s-13.3376-137.0368-39.9872-199.3728z m-236.928 345.8304a24.32 24.32 0 0 1 7.3728 17.8432 24.32 24.32 0 0 1-7.3728 17.8432l-52.9152 51.6864a23.6544 23.6544 0 0 1-34.4576 0L512 598.144l-148.9152 147.6864a23.6544 23.6544 0 0 1-34.4576 0l-52.9152-51.6864a26.9824 26.9824 0 0 1-6.144-17.8432c0-6.9632 2.048-12.928 6.144-17.8432l148.9152-147.6864-148.9152-147.6864a26.9824 26.9824 0 0 1-6.144-17.8432c0-6.9632 2.048-12.928 6.144-17.8432l52.9152-51.6864a23.6288 23.6288 0 0 1 17.2288-7.3728c6.5536 0 12.3136 2.4576 17.2288 7.3728L512 423.3728l147.6864-147.6864c4.9152-4.9152 10.6752-7.3728 17.2288-7.3728s12.3136 2.4576 17.2288 7.3728l52.9152 51.6864a24.32 24.32 0 0 1 7.3728 17.8432 24.32 24.32 0 0 1-7.3728 17.8432l-148.9152 147.6864 148.9408 147.712z" fill="#FF4949" /></svg>